<?xml version="1.0" standalone="no"?>
<!DOCTYPE svg PUBLIC "-//W3C//DTD SVG 20010904//EN"
 "http://www.w3.org/TR/2001/REC-SVG-20010904/DTD/svg10.dtd">
<svg version="1.0" xmlns="http://www.w3.org/2000/svg"
 width="792.000000pt" height="612.000000pt" viewBox="0 0 792.000000 612.000000"
 preserveAspectRatio="xMidYMid meet">

<g transform="translate(0.000000,612.000000) scale(0.100000,-0.100000)"
fill="#000000" stroke="none">
<path d="M1277 4632 c-92 -92 -167 -172 -167 -177 0 -6 78 -88 173 -183 l172
-172 175 175 175 175 -175 175 c-96 96 -177 175 -180 175 -3 0 -81 -75 -173
-168z"/>
<path d="M708 4063 l-127 -128 433 -440 434 -440 439 437 438 438 -133 132
-132 133 -305 -305 -305 -305 -303 303 c-166 166 -304 302 -307 302 -3 0 -62
-57 -132 -127z"/>
<path d="M5920 3075 l0 -595 115 0 115 0 0 595 0 595 -115 0 -115 0 0 -595z"/>
<path d="M6290 3075 l0 -595 115 0 115 0 0 595 0 595 -115 0 -115 0 0 -595z"/>
<path d="M5593 3611 c-110 -69 -64 -241 64 -241 83 0 133 51 133 134 0 38 -6
52 -33 82 -28 31 -41 37 -83 41 -37 3 -57 -1 -81 -16z"/>
<path d="M705 3190 l-130 -130 438 -438 437 -437 437 437 438 438 -133 132
-134 133 -301 -308 -302 -308 -305 306 c-168 168 -307 305 -310 305 -3 0 -64
-59 -135 -130z"/>
<path d="M4034 3247 c-53 -20 -154 -82 -154 -95 0 -2 28 -36 62 -76 34 -39 64
-73 65 -75 2 -3 16 7 31 22 34 33 91 57 135 57 75 0 157 -73 157 -138 0 -19
-4 -23 -17 -17 -60 26 -124 36 -199 32 -68 -4 -92 -10 -144 -38 -200 -106
-176 -383 39 -446 104 -30 232 -3 297 62 l24 24 0 -39 0 -40 111 0 110 0 -3
278 -3 277 -27 52 c-36 67 -85 116 -151 150 -46 24 -65 27 -162 30 -95 3 -118
0 -171 -20z m253 -467 c40 -17 42 -21 33 -44 -17 -46 -35 -68 -72 -87 -64 -33
-165 -18 -182 26 -11 29 -7 70 9 93 32 44 126 50 212 12z"/>
<path d="M5020 3255 c-19 -9 -52 -32 -72 -53 l-38 -36 0 42 0 42 -110 0 -110
0 0 -385 0 -385 115 0 115 0 0 235 c0 177 3 244 14 268 46 109 180 114 234 7
21 -42 22 -55 22 -277 l0 -233 110 0 110 0 0 268 c0 300 -6 339 -63 414 -18
23 -55 56 -82 73 -42 26 -59 30 -129 33 -57 1 -92 -2 -116 -13z"/>
<path d="M6857 3259 c-45 -11 -122 -49 -162 -82 l-29 -24 64 -77 c35 -42 67
-76 70 -76 4 0 17 11 30 25 86 91 254 56 280 -60 5 -22 8 -41 7 -42 -2 -1 -31
7 -66 17 -169 53 -339 -1 -403 -129 -83 -163 23 -335 213 -349 83 -6 166 17
214 59 32 28 35 29 35 11 0 -50 5 -52 122 -52 l110 0 -4 273 -3 272 -28 57
c-35 71 -110 140 -183 167 -59 23 -193 27 -267 10z m211 -476 c31 -15 37 -23
35 -47 -6 -82 -140 -135 -219 -87 -59 36 -51 109 16 144 42 22 112 17 168 -10z"/>
<path d="M3063 3233 c5 -17 252 -617 298 -724 l21 -49 63 0 63 0 25 63 c14 34
88 212 165 395 l140 332 -117 0 -116 0 -74 -195 c-41 -107 -77 -195 -81 -195
-3 0 -39 88 -80 195 l-74 195 -119 0 c-109 0 -119 -2 -114 -17z"/>
<path d="M5550 2865 l0 -386 113 3 c99 3 112 5 111 21 0 9 -1 181 -2 382 l-2
365 -110 0 -110 0 0 -385z"/>
<path d="M705 2320 l-130 -130 438 -438 437 -437 437 437 438 438 -130 130
-130 130 -300 -300 c-165 -165 -305 -300 -310 -300 -6 0 -145 135 -310 300
-165 165 -302 300 -305 300 -3 0 -64 -59 -135 -130z"/>
</g>
</svg>
